<svg id="eYg0Wl8ECuS1" xmlns="http://www.w3.org/2000/svg" xmlns:xlink="http://www.w3.org/1999/xlink" viewBox="0 0 512 512" shape-rendering="geometricPrecision" text-rendering="geometricPrecision"><g><g><path d="M490.667,64.005h-21.333v-42.667c0-11.776-9.536-21.333-21.333-21.333h-383.999c-11.797,0-21.333,9.557-21.333,21.333v42.667h-21.334c-11.797,0-21.333,9.557-21.333,21.333v64h511.998v-64c0-11.776-9.536-21.333-21.333-21.333Zm-64,0h-341.332v-21.333h341.332v21.333Z"/></g></g><g><g><path d="M0,192.001L0,256c0,42.261,10.453,82.048,28.672,117.205l5.61-10.176c45.973-79.338,130.837-128.362,221.717-128.362s175.743,49.023,221.481,127.978c.555.981,1.067,2.005,1.472,3.072l3.542,9.237c18.752-35.584,29.504-76.01,29.504-118.954v-64L0,192Z"/></g></g><g><g><path d="M255.999,277.333c-23.53,0-42.666,19.136-42.666,42.667c0,23.53,19.136,42.666,42.666,42.666s42.667-19.136,42.667-42.666c-.001-23.53-19.137-42.667-42.667-42.667Z"/></g></g><g><g><path d="M439.715,382.587c-24.02-40.725-60.606-71.743-103.059-89.215c2.795,8.427,4.672,17.28,4.672,26.624c0,47.061-38.272,85.333-85.333,85.333s-85.333-38.272-85.333-85.333c0-9.344,1.877-18.154,4.672-26.581C132.368,311.1,95.44,342.609,71.44,384.038L54.928,413.947c46.912,59.584,119.509,98.047,201.066,98.047c79.424,0,152.11-38.115,199.086-95.054l-15.365-34.353Z"/></g></g></svg>
